<?xml version="1.0" ?><svg xmlns="http://www.w3.org/2000/svg" version="1.1" xmlns:xlink="http://www.w3.org/1999/xlink" width="512" height="512" x="0" y="0" viewBox="0 0 64 64" style="enable-background:new 0 0 512 512" xml:space="preserve" class=""><g transform="matrix(-1,0,0,1,64,0)"><path fill="#ebebf0" d="m6.681 43.311 11.312-11.312 2.828 2.828L9.51 46.139z" opacity="1" data-original="#ebebf0" class=""></path><path fill="#dfdfe6" d="m13.78 36.22-7.094 7.094 2.829 2.828 7.327-7.327a10.065 10.065 0 0 0-3.062-2.595z" opacity="1" data-original="#dfdfe6"></path><path fill="#ebebf0" d="M54.485 46.15 43.173 34.838l2.828-2.828 11.312 11.312z" opacity="1" data-original="#ebebf0" class=""></path><path fill="#dfdfe6" d="M57.314 43.314 50.22 36.22a10.065 10.065 0 0 0-3.062 2.595l7.328 7.327z" opacity="1" data-original="#dfdfe6"></path><path fill="#ebebf0" d="m37.407 25.83 1.414-1.415 4.242 4.242-1.414 1.414z" opacity="1" data-original="#ebebf0" class=""></path><rect width="8" height="2" x="34.121" y="24.121" fill="#6b7182" rx="1" transform="rotate(-45 38.12 25.13)" opacity="1" data-original="#6b7182"></rect><path fill="#6b7182" d="M25 32v-5a2 2 0 0 0-2-2 2 2 0 0 0-2 2v13a2 2 0 0 0 2 2h11v-2a4 4 0 0 0-4-4h-1a4 4 0 0 1-4-4z" opacity="1" data-original="#6b7182"></path><path fill="#ffdc60" d="M61 24h1v6h-1a3 3 0 0 1-3-3 3 3 0 0 1 3-3z" opacity="1" data-original="#ffdc60"></path><path fill="#ebebf0" d="M6 29H4v-9a1 1 0 0 1 .367-.774l11-9A1 1 0 0 1 16 10h22a1 1 0 0 1 .832.445l10.555 15.832-1.664 1.11L37.465 12H16.357L6 20.474z" opacity="1" data-original="#ebebf0" class=""></path><path fill="#ebebf0" d="M37.586 10.09 17 19.447V11h-2v15.89l-8.817-7.215a1.212 1.212 0 0 0-.553 2.132l9.738 7.967A1 1 0 0 0 17 29v-7.356l19.183-8.72-11.477 29.648 1.865.721 12.362-31.932z" opacity="1" data-original="#ebebf0" class=""></path><path fill="#9899eb" d="m1 32 3-4h9.357a8 8 0 0 1 6.946 4.03L26 42h17v2a2 2 0 0 1-2 2H24.16a2 2 0 0 1-1.736-1.008l-6.272-10.977A4 4 0 0 0 12.679 32z" opacity="1" data-original="#9899eb" class=""></path><path fill="#9899eb" d="M60 33v-3a2 2 0 0 0-2-2h-2.394a2 2 0 0 1-1.11-.336l-1.992-1.328a2 2 0 0 0-1.11-.336H43l-3.51 4.914a8 8 0 0 0-1.49 4.65V42h5a11.493 11.493 0 0 1 11.22-9z" opacity="1" data-original="#9899eb" class=""></path><path fill="#7e80e6" d="m53.89 29.664-1.992-1.328a2 2 0 0 0-1.11-.336H45l-3.51 4.914a8 8 0 0 0-1.49 4.65V42h3a11.493 11.493 0 0 1 11.22-9H60v-3h-5a2 2 0 0 1-1.11-.336z" opacity="1" data-original="#7e80e6" class=""></path><circle cx="55" cy="45" r="8" fill="#40485a" opacity="1" data-original="#40485a" class=""></circle><circle cx="55" cy="45" r="4" fill="#ebebf0" opacity="1" data-original="#ebebf0" class=""></circle><path fill="#d0d0d6" d="M55 40a5 5 0 1 0 5 5 5.006 5.006 0 0 0-5-5zm3 5a2.966 2.966 0 0 1-.3 1.286L56.413 45l1.285-1.286A2.966 2.966 0 0 1 58 45zm-1.715-2.7L55 43.586 53.715 42.3a2.898 2.898 0 0 1 2.57 0zm-3.984 3.985a2.898 2.898 0 0 1 0-2.571L53.586 45zm1.414 1.415L55 46.414l1.285 1.286a2.898 2.898 0 0 1-2.57 0z" opacity="1" data-original="#d0d0d6"></path><circle cx="9" cy="45" r="8" fill="#40485a" opacity="1" data-original="#40485a" class=""></circle><circle cx="9" cy="45" r="4" fill="#ebebf0" opacity="1" data-original="#ebebf0" class=""></circle><path fill="#d0d0d6" d="M9 40a5 5 0 1 0 5 5 5.006 5.006 0 0 0-5-5zm3 5a2.966 2.966 0 0 1-.3 1.286L10.413 45l1.285-1.286A2.966 2.966 0 0 1 12 45zm-1.715-2.7L9 43.586 7.715 42.3a2.898 2.898 0 0 1 2.57 0zm-3.984 3.985a2.898 2.898 0 0 1 0-2.571L7.586 45zM7.715 47.7 9 46.414l1.285 1.286a2.898 2.898 0 0 1-2.57 0z" opacity="1" data-original="#d0d0d6"></path><path fill="#7e80e6" d="M18.946 34.03A8 8 0 0 0 12 30H2.5L1 32h11.679a4 4 0 0 1 3.473 2.015l6.272 10.977A2 2 0 0 0 24.161 46H41a2 2 0 0 0 2-2H24.643z" opacity="1" data-original="#7e80e6" class=""></path></g></svg>