<?xml version="1.0" ?><svg xmlns="http://www.w3.org/2000/svg" version="1.1" xmlns:xlink="http://www.w3.org/1999/xlink" width="512" height="512" x="0" y="0" viewBox="0 0 512 512" style="enable-background:new 0 0 512 512" xml:space="preserve" class=""><g transform="matrix(-1,0,0,1,512,0)"><path fill="#abadbe" d="M266.408 213.695h-39.565c-5.406 0-9.788-4.382-9.788-9.788v-46.068c0-7.85-6.364-14.214-14.214-14.214H193.7a8.51 8.51 0 0 0-8.51 8.51v93.426h92.047v-21.037c0-5.981-4.848-10.829-10.829-10.829z" opacity="1" data-original="#8a94db" class=""></path><path fill="#191633" d="M277.237 286.56h-98.662v-40.999h98.662zM54.09 222.156a7.727 7.727 0 0 1-6.346-12.125l61.761-89.204a32.377 32.377 0 0 1 26.673-14.012h34.845c12.072 0 21.893 9.821 21.893 21.892v77.964a7.726 7.726 0 1 1-15.452 0v-77.964a6.447 6.447 0 0 0-6.44-6.44h-34.845a16.935 16.935 0 0 0-13.955 7.338L60.45 218.827a7.72 7.72 0 0 1-6.36 3.329z" opacity="1" data-original="#514898" class=""></path><path fill="#399f63" d="m201.366 214.169 33.218 57.328h79.475a7.97 7.97 0 0 0 7.969-7.969V216.13a5.624 5.624 0 0 1 5.624-5.624h141.562c16.612 0 30.079 13.467 30.079 30.079v125.861h-17.215l-80.025-12.397-80.025 12.397-52.794-10.518-49.366 10.518-80.025-10-80.025 10H37.246V221.708c0-8.304 6.732-15.036 15.036-15.036h136.073a15.034 15.034 0 0 1 13.011 7.497z" opacity="1" data-original="#e5936a" class=""></path><path fill="#1f6535" d="M473.168 303.4c.011.075.026.148.037.223l8.873 62.824-80.423-6-79.627 6 8.873-62.824c.011-.075.026-.148.037-.223h-119.98c.011.075.026.148.037.223l8.873 62.824-81.318-4-78.732 4 8.873-62.824c.011-.075.026-.148.037-.223H37.246v63.047l237.319-8.574 224.727 8.574V303.4z" opacity="1" data-original="#e27c48" class=""></path><g fill="#8a94db"><path d="M32.956 333.639c-5.518 0-9.99 4.473-9.99 9.99v12.827c0 5.518 4.473 9.99 9.99 9.99h26.862l7.15-15.221-2.516-17.587H32.956zM502.01 333.639h-24.566l-5.656 16.597 10.29 16.211h19.932c5.518 0 9.99-4.473 9.99-9.99V343.63c0-5.518-4.473-9.991-9.99-9.991zM215.234 333.639l-2.59 17.062 7.224 15.746h102.16l8.539-17.979-3.906-14.829z" fill="#abadbe" opacity="1" data-original="#8a94db" class=""></path></g><path fill="#399f63" d="M330.412 223.847a7.728 7.728 0 0 1-7.275-5.125l-28.434-79.44a7.727 7.727 0 0 1 14.549-5.207l28.434 79.44a7.726 7.726 0 0 1-7.274 10.332z" opacity="1" data-original="#e5936a" class=""></path><path fill="#191633" d="M12.997 184.986h11.252c7.178 0 12.997 5.819 12.997 12.997v90.803c0 7.178-5.819 12.997-12.997 12.997H12.997C5.819 301.782 0 295.963 0 288.785v-90.803c0-7.177 5.819-12.996 12.997-12.996z" opacity="1" data-original="#514898" class=""></path><path fill="#000000" d="M12.997 272.093H24.25c7.178 0 12.997-5.819 12.997-12.997v29.688c0 7.178-5.819 12.997-12.997 12.997H12.997C5.819 301.782 0 295.963 0 288.785v-29.688c0 7.178 5.819 12.996 12.997 12.996z" opacity="1" data-original="#453d81" class=""></path><path fill="#f4f4f4" d="M362.044 276.569h80.017c15.671 0 28.952 11.537 31.144 27.054l8.873 62.824h-160.05l8.873-62.824c2.191-15.518 15.472-27.054 31.143-27.054zM99.834 276.569h80.017c15.671 0 28.952 11.537 31.144 27.054l8.873 62.824H59.818l8.873-62.824c2.191-15.518 15.472-27.054 31.143-27.054z" opacity="1" data-original="#d6e0f4" class=""></path><g transform="rotate(-52.03 402.104 354.166)"><circle cx="402.053" cy="354.05" r="51.135" fill="#191633" opacity="1" data-original="#514898" class=""></circle><circle cx="402.052" cy="354.05" r="20.411" fill="#f4f4f4" opacity="1" data-original="#d5d9f2" class=""></circle></g><g transform="rotate(-52.03 139.838 354.14)"><circle cx="139.843" cy="354.05" r="51.135" fill="#191633" opacity="1" data-original="#514898" class=""></circle><circle cx="139.843" cy="354.05" r="20.411" fill="#f4f4f4" opacity="1" data-original="#d5d9f2" class=""></circle></g></g></svg>