<?xml version="1.0" ?><svg xmlns="http://www.w3.org/2000/svg" version="1.1" xmlns:xlink="http://www.w3.org/1999/xlink" width="512" height="512" x="0" y="0" viewBox="0 0 512 512" style="enable-background:new 0 0 512 512" xml:space="preserve" class=""><g transform="matrix(-1,0,0,1,512,0)"><path d="M288.132 167.445a7.614 7.614 0 0 1-1.4-15.094l51.749-9.743c4.132-.782 8.111 1.941 8.889 6.072a7.612 7.612 0 0 1-6.072 8.889l-51.749 9.743a7.546 7.546 0 0 1-1.417.133z" style="" fill="#35495d" data-original="#35495d" class=""></path><path d="M339.664 124.067 316.86 96.384l-19.603.146 30.658 37.217a7.594 7.594 0 0 0 5.88 2.772 7.612 7.612 0 0 0 5.869-12.452zM105.421 163.554h112.085c21.765 0 39.479 17.532 40.072 39.154l-.718.934H127.083c-17.052 0-30.875-13.823-30.875-30.875a9.213 9.213 0 0 1 9.213-9.213z" style="" fill="#1785b8" data-original="#1785b8" class=""></path><path d="M217.506 163.554h-22.741c16.239 0 16.005 40.088 16.005 40.088h46.09l.718-.934c-.593-21.622-18.306-39.154-40.072-39.154z" style="" fill="#0a7693" data-original="#0a7693" class=""></path><circle cx="109.31" cy="360.06" r="66.35" style="" fill="#35495d" data-original="#35495d" class=""></circle><path d="M109.305 293.711a66.182 66.182 0 0 0-23.39 4.253c25.102 9.46 42.963 33.689 42.963 62.099s-17.861 52.64-42.963 62.099a66.182 66.182 0 0 0 23.39 4.253c36.645 0 66.353-29.707 66.353-66.353-.001-36.644-29.708-66.351-66.353-66.351z" style="" fill="#2a3a4c" data-original="#2a3a4c"></path><path d="M109.304 397.736c-20.772 0-37.672-16.899-37.672-37.672s16.899-37.672 37.672-37.672 37.672 16.899 37.672 37.672-16.899 37.672-37.672 37.672z" style="" fill="#caddea" data-original="#caddea"></path><circle cx="445.65" cy="360.06" r="66.35" style="" fill="#35495d" data-original="#35495d" class=""></circle><path d="M445.647 293.711a66.185 66.185 0 0 0-23.344 4.235c25.126 9.448 43.009 33.69 43.009 62.118s-17.883 52.67-43.009 62.118a66.18 66.18 0 0 0 23.344 4.235c36.645 0 66.353-29.707 66.353-66.353s-29.707-66.353-66.353-66.353z" style="" fill="#2a3a4c" data-original="#2a3a4c"></path><path d="M445.647 397.736c-20.772 0-37.672-16.899-37.672-37.672s16.899-37.672 37.672-37.672 37.672 16.899 37.672 37.672-16.899 37.672-37.672 37.672z" style="" fill="#caddea" data-original="#caddea"></path><path d="M451.477 370.257c-7.486 3.912-16.727 1.014-20.639-6.472l-42.024-80.421 27.111-14.167 42.024 80.421c3.912 7.487 1.015 16.727-6.472 20.639z" style="" fill="#d0d1d2" data-original="#d0d1d2" class=""></path><path d="M494.273 285.723c-12.819-24.741-40.632-39.492-70.793-35.98l-63.479-111.469-26.258 9.402s40.973 98.069 22.798 164.906c-2.179 11.32-12.085 19.502-23.613 19.502h-40.889c-.69 0-1.377-.012-2.061-.035-38.947-1.316-64.786-41.092-51.36-77.675l18.961-51.666a.098.098 0 0 0-.092-.131h-127.98C57.982 202.576 0 260.559 0 332.084v20.968c0 5.321 4.314 9.635 9.635 9.635h341.928c17.015 0 32.267-4.76 38.345-20.654 2.415-6.314 6.232-12.026 11.278-16.525 28.533-25.445 68.153-29.225 86.858-29.467 5.257-.068 8.647-5.65 6.229-10.318z" style="" fill="#f9644b" data-original="#f9644b" class=""></path><path d="M134.426 267.037H86.015C38.51 267.037 0 305.547 0 353.052c0 5.321 4.314 9.635 9.635 9.635h201.171v-19.271c0-42.183-34.197-76.379-76.38-76.379z" style="" fill="#f94730" data-original="#f94730" class=""></path><path d="M156.437 270.271c4.338 3.119 7.174 8.196 7.174 13.947v78.469h47.195v-19.271c0-34.529-22.919-63.693-54.369-73.145z" style="" fill="#ea3326" data-original="#ea3326"></path><path d="M398.136 154.522h-66.973a5.015 5.015 0 0 1-5.015-5.015v-16.479a9.457 9.457 0 0 1 7.153-9.172l63.429-15.937c3.645-.916 7.178 1.84 7.178 5.598v35.234a5.772 5.772 0 0 1-5.772 5.771z" style="" fill="#f94730" data-original="#f94730" class=""></path><path d="m396.729 107.918-21.145 5.313v41.29h22.551a5.772 5.772 0 0 0 5.772-5.772v-35.234c.001-3.757-3.533-6.512-7.178-5.597z" style="" fill="#e2effa" data-original="#e2effa" class=""></path><path d="M373.347 358.982c7.398-3.102 13.301-8.421 16.562-16.948 2.483-6.492 6.486-12.306 11.701-16.901 28.497-25.104 67.813-28.85 86.428-29.092 5.261-.068 8.654-5.652 6.233-10.323-12.82-24.739-40.632-39.488-70.791-35.976 0 .001-55.328 46.771-50.133 109.24z" style="" fill="#f94730" data-original="#f94730" class=""></path><path d="m272.369 85.914 32.897-.33a5.584 5.584 0 0 1 4.363 2.031l15.826 19.204a.808.808 0 0 1-.617 1.322l-46.119.344c-5.826 0-10.548-4.723-10.548-10.548v-7.824a4.199 4.199 0 0 1 4.198-4.199z" style="" fill="#1375a3" data-original="#1375a3"></path></g></svg>