<svg viewBox="0 0 484 92" fill="none" xmlns="http://www.w3.org/2000/svg" class="h-7"><path fill-rule="evenodd" clip-rule="evenodd" d="M204.006 91.715c5.895 0 11.37-4.325 12.229-9.662l3.306-20.483c.116-.719-.384-1.306-1.112-1.306h-18.971c-.727 0-1.418.587-1.534 1.305l-1.529 9.443c-.276 1.72-2.041 3.114-3.942 3.114h-14.202c-1.901 0-3.216-1.394-2.94-3.114l8.023-49.831c.276-1.72 2.042-3.115 3.943-3.115h14.203c1.899 0 3.215 1.394 2.938 3.115l-1.508 9.44c-.115.719.387 1.307 1.114 1.307h18.972c.727 0 1.417-.588 1.532-1.306l3.285-20.483c.859-5.336-3.224-9.663-9.118-9.663h-42.971c-5.896 0-11.372 4.327-12.23 9.663l-11.577 71.915c-.859 5.336 3.223 9.661 9.118 9.661h42.971zm89.283-70.98c-.116.717-.806 1.306-1.534 1.306h-16.392c-.728 0-1.418.587-1.534 1.305l-10.79 67.063c-.116.719-.806 1.307-1.534 1.307h-18.97c-.727 0-1.228-.588-1.113-1.307l10.79-67.063c.116-.718-.384-1.305-1.112-1.305h-15.707c-.728 0-1.228-.589-1.112-1.307l3.057-18.952c.116-.718.806-1.306 1.533-1.306h56.364c.727 0 1.228.588 1.112 1.306l-3.058 18.952zm190.335-18.95c.116-.718-.384-1.306-1.112-1.306H463.54c-.727 0-1.417.588-1.533 1.306l-6.723 41.763c-.115.718-.49.78-.832.139l-22.409-42.04c-.342-.642-1.217-1.168-1.945-1.168h-12.043c-.728 0-1.418.588-1.533 1.306L402.254 90.41c-.116.718.385 1.305 1.113 1.305h18.973c.728 0 1.418-.587 1.533-1.305l6.721-41.763c.116-.719.49-.781.833-.14l22.408 42.041c.342.642 1.218 1.167 1.945 1.167h12.045c.728 0 1.417-.587 1.533-1.305l14.266-88.625zM349.621 70.238c-.276 1.702 1.039 3.081 2.941 3.081h14.203c1.9 0 3.665-1.379 3.942-3.08l8.022-49.285c.276-1.702-1.039-3.081-2.939-3.081h-14.203c-1.901 0-3.665 1.38-3.943 3.081l-8.023 49.284zm.413-69.762h42.972c5.895 0 9.976 4.28 9.117 9.557L390.546 81.16c-.859 5.278-6.334 9.556-12.228 9.556h-42.973c-5.895 0-9.977-4.278-9.117-9.556l11.578-71.127c.858-5.277 6.333-9.557 12.228-9.557zm-43.978.003c-.728 0-1.418.588-1.534 1.306L290.255 90.41c-.116.719.385 1.306 1.113 1.306h18.97c.727 0 1.418-.587 1.533-1.306l14.268-88.624c.115-.718-.385-1.306-1.113-1.306h-18.97zM127.077 21.181l-3.543 22.008c-.116.718-.806 1.306-1.533 1.306h-18.439c-.727 0-1.134-.564-.902-1.254l7.412-22.06c.577-1.72 2.587-3.115 4.487-3.115h9.58c1.899 0 3.215 1.394 2.938 3.115zM92.163 10.139L65.181 90.461c-.232.69.174 1.254.902 1.254h18.97c.728 0 1.513-.564 1.745-1.254l9.11-27.121c.233-.69 1.017-1.255 1.745-1.255h21.516c.728 0 1.229.588 1.113 1.306l-4.35 27.019c-.115.718.386 1.305 1.113 1.305h18.971c.728 0 1.418-.587 1.534-1.305l12.922-80.27c.859-5.337-3.223-9.664-9.118-9.664h-35.27c-5.896 0-12.128 4.327-13.921 9.663z" fill="#001489"/><path fill-rule="evenodd" clip-rule="evenodd" d="M47.236 1.723C47.468 1.033 48.253.47 48.98.47h6.036c.728 0 1.134.565.902 1.254L26.11 90.454c-.232.69-1.016 1.254-1.744 1.254H18.33c-.728 0-1.134-.564-.902-1.254l29.808-88.73zm21.703 0c.232-.69 1.017-1.254 1.745-1.254H81.06c.727 0 1.133.565.901 1.254L52.155 90.454c-.232.69-1.017 1.254-1.745 1.254H40.033c-.727 0-1.133-.564-.901-1.254l29.807-88.73zm-34.725 0c.232-.69-.174-1.254-.9-1.254h-1.857c-.9 0-1.295.462-1.584 1.254L.065 90.454c-.231.69.174 1.254.902 1.254h1.86c.877 0 1.294-.408 1.58-1.254l29.807-88.73z" fill="#62B5E5"/></svg>