<?xml version="1.0" encoding="utf-8"?>
<!-- Generator: Adobe Illustrator 23.0.1, SVG Export Plug-In . SVG Version: 6.00 Build 0)  -->
<svg width="286.38px" height="89.14px" version="1.1" id="Layer_1" xmlns="http://www.w3.org/2000/svg" xmlns:xlink="http://www.w3.org/1999/xlink" x="0px" y="0px"
	 viewBox="0 0 286.38 89.14" style="enable-background:new 0 0 286.38 89.14;" xml:space="preserve" preserveAspectRatio="xMidYMin slice">
<style type="text/css">
	.st0{fill:#FFDC00;}
	.st1{fill-rule:evenodd;clip-rule:evenodd;fill:#E20019;}
</style>
<g>
	<g>
		<path class="st0" d="M58.12,43.14l-0.23-0.09v-0.7l0.18-0.1c6.79-3.83,10.23-10.06,10.23-18.52c0-6.74-2.22-12.24-6.8-16.82
			C56.92,2.33,50.63,0,42.81,0H14.33C5.76,0,0,5.66,0,14.08v60.49c0,8.35,5.76,13.95,14.33,13.95h28.24
			c17.35,0,28.13-9.77,28.13-25.5C70.7,53.43,66.11,46.19,58.12,43.14 M20.37,18.87H38.8c6.15,0,9.26,2.91,9.26,8.64
			c0,5.33-3.38,8.39-9.26,8.39H20.37V18.87z M40.43,69.77H20.37v-18.4h19.8c6.65,0,10.02,3.08,10.02,9.14
			C50.2,66.65,46.91,69.77,40.43,69.77"/>
		<path class="st0" d="M112.66,20.37c-3.66-1.01-7.76-1.5-12.52-1.5c-14.52,0-22.85,8.05-22.85,22.09v38.08
			c0,5.48,4.63,10.11,10.11,10.11c5.76,0,10.11-4.35,10.11-10.11V45.37c0-5.61,3-6.78,5.53-6.78c1.57,0,3.12,0.16,4.86,0.51
			c1.81,0.36,3.08,0.5,3.46,0.5c5.83,0,8.98-5.01,8.98-9.73C120.34,24.83,117.83,21.72,112.66,20.37"/>
		<path class="st0" d="M135.57,20.58c-5.76,0-9.94,4.34-9.94,10.31v47.94c0,5.59,4.55,10.31,9.94,10.31
			c5.64,0,10.06-4.53,10.06-10.31V30.89C145.63,25.01,141.3,20.58,135.57,20.58"/>
		<path class="st0" d="M251.24,18.87c-19.37,0-35.14,15.76-35.14,35.14s15.76,35.14,35.14,35.14c19.38,0,35.14-15.76,35.14-35.14
			S270.62,18.87,251.24,18.87z M251.24,69c-8.27,0-15-6.73-15-15s6.73-15,15-15c8.27,0,15,6.73,15,15S259.51,69,251.24,69z"/>
		<path class="st0" d="M186.03,89.14c-19.38,0-35.14-15.76-35.14-35.14c0-19.38,15.76-35.14,35.14-35.14c6.71,0,13.24,1.9,18.89,5.5
			c1.63,1.04,3.19,2.23,4.63,3.53c4.13,3.72,4.46,10.09,0.74,14.22c-3.72,4.13-10.09,4.46-14.22,0.74
			c-0.62-0.56-1.28-1.06-1.98-1.51c-2.4-1.53-5.18-2.34-8.05-2.34c-8.27,0-15,6.73-15,15s6.73,15,15,15c2.87,0,5.65-0.81,8.05-2.34
			c0.7-0.45,1.37-0.96,1.98-1.51c4.13-3.72,10.49-3.4,14.22,0.73s3.4,10.49-0.73,14.22c-1.43,1.29-2.99,2.48-4.63,3.53
			C199.27,87.24,192.74,89.14,186.03,89.14z"/>
		<path class="st1" d="M123.86,29.25c5.25-8.87,20.3-22.36,23.75-23.99c1.96,1.31,3.43,3.6,3.78,4.76c0.31,1.16,0.99,1.64,1.47,1.97
			l-2.95,3.3l1.97,1.97l0.17,1.63l2.78-2.12l3.78,4.42c-10.34,8.38-16.7,17.6-17.84,19.57l-3.6-3.45l0.81-1.14l-2.29-2.79
			l-3.12,4.28l-3.61-3.3l1.47-2.14l-2.3,1.49L123.86,29.25"/>
	</g>
</g>
</svg>
