<?xml version="1.0" encoding="UTF-8" standalone="no"?><svg width="174" height="35" viewBox="0 0 174 35" fill="none" xmlns="http://www.w3.org/2000/svg">
<path d="M0 6.25098H6.337V20.314H0V6.25098Z" fill="#3D8F39"/>
<path d="M12.6738 6.25098H19.0108V20.314H12.6738V6.25098Z" fill="#77AB16"/>
<path d="M25.3477 6.25098H31.6847V20.314H25.3477V6.25098Z" fill="#3D8F39"/>
<path d="M38.0215 6.25098H44.3585V20.314H38.0215V6.25098Z" fill="#77AB16"/>
<path d="M50.6953 6.25098H57.0323V20.314H50.6953V6.25098Z" fill="#3D8F39"/>
<path d="M165.057 16.946C164.6 16.7464 164.185 16.4636 163.832 16.112C163.479 15.7572 163.2 15.3361 163.011 14.873C162.611 13.8822 162.611 12.7748 163.011 11.784C163.198 11.3163 163.477 10.8909 163.832 10.533C164.185 10.1813 164.601 9.89818 165.057 9.69799C165.535 9.49204 166.049 9.38581 166.57 9.38581C167.09 9.38581 167.604 9.49204 168.082 9.69799C168.538 9.89828 168.954 10.1814 169.307 10.533C169.661 10.8912 169.94 11.3165 170.128 11.784C170.528 12.7748 170.528 13.8822 170.128 14.873C169.939 15.336 169.66 15.7571 169.307 16.112C168.954 16.4635 168.538 16.7463 168.082 16.946C167.604 17.1525 167.09 17.259 166.57 17.259C166.049 17.259 165.535 17.1525 165.057 16.946ZM169.502 20.101C170.386 19.7378 171.188 19.2012 171.861 18.523C172.524 17.8503 173.055 17.0589 173.425 16.19C173.809 15.2922 174.005 14.3247 173.998 13.348C174.001 12.3839 173.812 11.4287 173.443 10.5381C173.074 9.6475 172.531 8.83914 171.847 8.15999C171.164 7.49071 170.358 6.95964 169.474 6.59599C168.099 6.01818 166.584 5.85836 165.119 6.13653C163.654 6.4147 162.303 7.1185 161.236 8.15999C160.563 8.82487 160.032 9.61828 159.672 10.493C159.296 11.3976 159.105 12.3684 159.111 13.348C159.105 14.3083 159.29 15.2602 159.655 16.1485C160.02 17.0368 160.557 17.8439 161.236 18.523C161.912 19.1978 162.714 19.7338 163.596 20.101C164.529 20.4889 165.531 20.6838 166.542 20.674C167.557 20.6828 168.563 20.488 169.501 20.101H169.502ZM148.645 16.946C148.188 16.7464 147.773 16.4636 147.42 16.112C147.067 15.7573 146.788 15.3362 146.599 14.873C146.199 13.8822 146.199 12.7748 146.599 11.784C146.786 11.3163 147.065 10.8908 147.42 10.533C147.773 10.1813 148.189 9.8982 148.645 9.69799C149.123 9.49212 149.637 9.38593 150.157 9.38593C150.677 9.38593 151.192 9.49212 151.669 9.69799C152.125 9.8982 152.541 10.1813 152.894 10.533C153.248 10.8912 153.527 11.3165 153.715 11.784C154.114 12.7749 154.114 13.8821 153.715 14.873C153.526 15.336 153.247 15.7571 152.894 16.112C152.541 16.4636 152.126 16.7464 151.669 16.946C151.192 17.1524 150.677 17.2589 150.157 17.2589C149.637 17.2589 149.122 17.1524 148.645 16.946ZM153.09 20.101C153.974 19.738 154.776 19.2014 155.449 18.523C156.112 17.8503 156.643 17.0589 157.014 16.19C157.398 15.2922 157.594 14.3247 157.587 13.348C157.59 12.3838 157.402 11.4286 157.033 10.538C156.663 9.6473 156.121 8.83897 155.436 8.15999C154.753 7.49078 153.948 6.95971 153.064 6.59599C151.689 6.01804 150.174 5.85816 148.709 6.13633C147.244 6.4145 145.893 7.11839 144.826 8.15999C144.154 8.82501 143.622 9.61839 143.262 10.493C142.886 11.3976 142.695 12.3684 142.701 13.348C142.695 14.3083 142.88 15.2603 143.244 16.1486C143.609 17.037 144.147 17.8441 144.826 18.523C145.502 19.1976 146.303 19.7337 147.185 20.101C148.118 20.4888 149.12 20.6838 150.131 20.674C151.146 20.6829 152.152 20.4881 153.09 20.101ZM137.006 3.99099C137.222 4.20815 137.48 4.37821 137.765 4.49043C138.05 4.60265 138.355 4.6546 138.661 4.64299C138.968 4.65851 139.274 4.61 139.561 4.50055C139.847 4.3911 140.108 4.22312 140.327 4.00731C140.545 3.79149 140.716 3.53258 140.828 3.24706C140.941 2.96155 140.993 2.6557 140.981 2.34899C140.991 2.04035 140.94 1.73271 140.831 1.44397C140.721 1.15522 140.555 0.891115 140.343 0.666993C140.125 0.444661 139.862 0.270597 139.573 0.156048C139.283 0.0415003 138.972 -0.010982 138.661 0.00199339C138.356 -0.00702598 138.053 0.0474329 137.77 0.161913C137.487 0.276392 137.232 0.448392 137.019 0.666993C136.803 0.888946 136.633 1.15236 136.521 1.4414C136.409 1.73045 136.357 2.03916 136.367 2.34899C136.358 2.65161 136.409 2.95302 136.519 3.23518C136.629 3.51733 136.794 3.7744 137.006 3.99099ZM136.836 20.391H140.512V6.30899H136.836V20.391ZM125.786 20.391H129.358V12.961C129.313 12.5026 129.364 12.04 129.508 11.6024C129.652 11.1648 129.884 10.7618 130.192 10.419C130.804 9.88612 131.598 9.61055 132.408 9.64999C132.778 9.64616 133.147 9.69464 133.503 9.79399C133.869 9.92776 134.215 10.1097 134.532 10.335V6.31399C134.115 6.14191 133.667 6.05357 133.216 6.05399C132.391 6.03379 131.576 6.23622 130.857 6.63999C130.158 7.06574 129.621 7.71256 129.331 8.47799V6.31399H125.782L125.786 20.391ZM118.533 9.76799C119.2 10.2642 119.67 10.9794 119.862 11.788H112.354C112.618 10.9966 113.119 10.3052 113.788 9.80699C114.478 9.311 115.311 9.05459 116.16 9.07699C117.004 9.04875 117.836 9.29084 118.533 9.76799ZM120.299 19.792C121.328 19.1976 122.217 18.3886 122.906 17.42L119.96 15.699C119.621 16.2639 119.146 16.7346 118.578 17.068C117.933 17.425 117.204 17.6008 116.467 17.577C115.529 17.6084 114.607 17.327 113.847 16.777C113.136 16.2372 112.634 15.468 112.426 14.6H123.61V13.244C123.62 12.2526 123.434 11.2691 123.062 10.35C122.718 9.49512 122.203 8.7191 121.55 8.06899C120.891 7.42365 120.111 6.91401 119.256 6.56899C118.328 6.19635 117.336 6.01046 116.336 6.02199C115.334 6.01394 114.341 6.20886 113.416 6.59499C112.54 6.9591 111.743 7.49032 111.07 8.15899C110.404 8.82684 109.877 9.61971 109.519 10.492C109.142 11.4052 108.951 12.3848 108.958 13.373C108.95 14.3534 109.127 15.3264 109.48 16.241C109.816 17.109 110.326 17.8987 110.98 18.561C111.651 19.2349 112.454 19.7632 113.339 20.113C114.318 20.4976 115.363 20.6881 116.415 20.674C117.765 20.7245 119.104 20.4189 120.299 19.788V19.792ZM96.241 9.48799H99.897V15.406C99.897 17.318 100.305 18.6693 101.122 19.46C101.589 19.8746 102.134 20.1927 102.724 20.3963C103.315 20.5998 103.94 20.6847 104.563 20.646C105.186 20.6516 105.806 20.5591 106.401 20.372C106.952 20.1958 107.469 19.9251 107.927 19.572L106.284 16.756C105.93 17.085 105.467 17.2707 104.984 17.277C104.779 17.2845 104.574 17.2489 104.383 17.1726C104.192 17.0963 104.02 16.981 103.876 16.834C103.541 16.3851 103.388 15.8268 103.446 15.27V9.49099H107.146V6.30999H103.446V1.17399L99.901 3.25999V6.30999H98.558L96.241 9.48799ZM81.172 20.391H85.499L88.654 15.985L91.882 20.391H96.235L90.865 13.191L95.87 6.30799H91.652L88.682 10.481L85.736 6.30899H81.46L86.44 13.166L81.172 20.391ZM76.013 9.76799C76.6797 10.2642 77.1502 10.9794 77.342 11.788H69.834C70.0982 10.9966 70.5987 10.3052 71.268 9.80699C71.9577 9.31107 72.7908 9.05467 73.64 9.07699C74.4844 9.04882 75.3157 9.2909 76.013 9.76799ZM77.603 19.792C78.6321 19.1975 79.5212 18.3885 80.21 17.42L77.264 15.699C76.9253 16.2639 76.4501 16.7346 75.882 17.068C75.2368 17.4251 74.507 17.601 73.77 17.577C72.8321 17.6082 71.9105 17.3268 71.15 16.777C70.4397 16.2368 69.9381 15.4677 69.73 14.6H80.914V13.244C80.9238 12.2526 80.7375 11.2691 80.366 10.35C80.0216 9.49513 79.5072 8.71911 78.854 8.06899C78.1949 7.42361 77.4155 6.91397 76.56 6.56899C75.6321 6.19635 74.6398 6.01046 73.64 6.02199C72.638 6.01392 71.6447 6.20883 70.72 6.59499C69.8439 6.95915 69.0471 7.49036 68.374 8.15899C67.7084 8.82694 67.1813 9.61978 66.823 10.492C66.4455 11.4052 66.2548 12.3848 66.262 13.373C66.2536 14.3534 66.4307 15.3265 66.784 16.241C67.1197 17.109 67.6302 17.8987 68.284 18.561C68.9553 19.235 69.7583 19.7634 70.643 20.113C71.6223 20.4976 72.667 20.6882 73.719 20.674C75.0693 20.7247 76.4092 20.4191 77.604 19.788" fill="black"/>
<path d="M81.5645 28.464H83.5785V34.416H85.1485V28.464H87.1424V26.983H81.5645V28.464ZM93.6665 31.563C93.6829 31.9402 93.5495 32.3087 93.2954 32.588C93.1701 32.718 93.0185 32.8198 92.8507 32.8865C92.6829 32.9533 92.5028 32.9834 92.3224 32.975C92.143 32.9837 91.9638 32.9538 91.797 32.8872C91.6301 32.8206 91.4795 32.7189 91.3555 32.589C91.1039 32.3081 90.9725 31.9397 90.9894 31.563V26.983H89.3705V31.533C89.3642 31.9569 89.435 32.3784 89.5795 32.777C89.7094 33.1305 89.914 33.4518 90.1795 33.719C90.4464 33.9798 90.7654 34.1816 91.1154 34.311C91.895 34.5833 92.7439 34.5833 93.5235 34.311C93.8766 34.1829 94.1976 33.9794 94.464 33.7147C94.7305 33.4499 94.9361 33.1303 95.0665 32.778C95.2146 32.3799 95.2875 31.9577 95.2814 31.533V26.983H93.6665V31.563ZM97.7844 26.983H99.3934V34.416H97.7844V26.983ZM106.604 31.685L103.577 26.985H101.932V34.418H103.482V29.557L106.582 34.373L106.61 34.417H108.147V26.984H106.607L106.604 31.685ZM114.24 29.903L112.134 26.983H110.634V34.416H112.214V29.581L114.231 32.318L116.309 29.529V34.416H117.869V26.983H116.426L114.24 29.903ZM120.353 34.416H125.415V32.896H121.943V31.44H125.415V29.93H121.943V28.494H125.415V26.984H120.353V34.416ZM132.033 31.563C132.05 31.9401 131.917 32.3084 131.663 32.588C131.538 32.7179 131.386 32.8196 131.219 32.8864C131.051 32.9531 130.871 32.9833 130.69 32.975C130.511 32.9837 130.332 32.9537 130.165 32.8871C129.998 32.8205 129.848 32.7188 129.723 32.589C129.472 32.3079 129.341 31.9396 129.358 31.563V26.983H127.733V31.533C127.727 31.9569 127.798 32.3784 127.942 32.777C128.072 33.1306 128.277 33.4519 128.542 33.719C128.81 33.98 129.129 34.1817 129.479 34.311C130.259 34.5833 131.108 34.5833 131.887 34.311C132.241 34.1829 132.562 33.9794 132.828 33.7146C133.095 33.4499 133.301 33.1303 133.431 32.778C133.58 32.3799 133.652 31.9577 133.646 31.533V26.983H132.033V31.563ZM141.054 30.566C141.265 30.4263 141.441 30.2406 141.568 30.023C141.724 29.7415 141.802 29.4236 141.794 29.102C141.811 28.8038 141.758 28.5058 141.639 28.232C141.52 27.9581 141.338 27.716 141.108 27.525C140.549 27.1314 139.871 26.9402 139.188 26.983H136.097V34.416H139.209C139.585 34.4205 139.959 34.3744 140.321 34.279C140.631 34.198 140.921 34.0555 141.173 33.86C141.41 33.6725 141.596 33.4301 141.717 33.154C141.847 32.8452 141.911 32.5128 141.904 32.178C141.913 31.8207 141.825 31.4678 141.648 31.157C141.502 30.9141 141.298 30.7111 141.054 30.566ZM139.228 32.966H137.667V31.351H139.167C139.476 31.3218 139.786 31.396 140.048 31.562C140.132 31.6344 140.197 31.7251 140.239 31.8269C140.281 31.9288 140.3 32.039 140.292 32.149C140.299 32.2622 140.28 32.3755 140.235 32.4797C140.19 32.5839 140.121 32.6761 140.034 32.749C139.799 32.9116 139.514 32.9879 139.228 32.965V32.966ZM139.985 29.685C139.773 29.8496 139.506 29.9268 139.238 29.901H137.667V28.415H139.218C139.486 28.3941 139.754 28.4646 139.976 28.615C140.053 28.6782 140.113 28.7583 140.153 28.849C140.192 28.9396 140.21 29.0382 140.205 29.137C140.209 29.2383 140.191 29.3392 140.154 29.4333C140.116 29.5274 140.06 29.6128 139.987 29.684L139.985 29.685ZM144.183 34.416H149.245V32.896H145.773V31.44H149.245V29.93H145.773V28.494H149.245V26.984H144.183V34.416ZM153.243 26.983H151.643V34.416H156.586V32.866H153.243V26.983ZM158.836 34.416H163.898V32.896H160.426V31.44H163.898V29.93H160.426V28.494H163.898V26.984H158.836V34.416ZM170.968 26.983V31.683L167.968 27.025L167.94 26.981H166.294V34.414H167.844V29.557L170.944 34.373L170.972 34.417H172.505V26.984L170.968 26.983Z" fill="#3D8F39"/>
</svg>
