<?xml version="1.0" encoding="UTF-8"?>
<svg width="151px" height="75px" viewBox="0 0 151 75" version="1.1" xmlns="http://www.w3.org/2000/svg" xmlns:xlink="http://www.w3.org/1999/xlink">
    <!-- Generator: Sketch 58 (84663) - https://sketch.com -->
    <title>Group 2</title>
    <desc>Created with Sketch.</desc>
    <g id="design-system" stroke="none" stroke-width="1" fill="none" fill-rule="evenodd">
        <g id="sprite" transform="translate(-610.000000, -251.000000)" fill="#00897D">
            <g id="green-logo-" transform="translate(610.239571, 251.303700)">
                <g id="Group-2" transform="translate(0.000000, 0.000000)">
                    <path d="M13.5641291,36.9707 C14.5781291,21.1657 28.2211291,7.4037 47.5451291,0.1997 C20.5791291,6.4307 1.10412915,20.6087 0.0451291484,37.1107 C-1.03987085,54.0277 17.5411291,68.4997 44.7961291,74.4737 C25.2801291,67.5017 12.5141291,53.3307 13.5641291,36.9707" id="Fill-17"></path>
                    <path d="M107.071929,0 C125.790929,7.131 137.914929,21.013 136.889929,36.971 C135.831929,53.475 120.989929,67.751 100.287929,74.643 C128.782929,68.805 149.663929,54.207 150.759929,37.111 C151.831929,20.42 133.748929,6.103 107.071929,0" id="Fill-19"></path>
                    <polygon id="Fill-21" points="37.7545291 56.1934 43.2935291 18.5364 53.4195291 18.5364 47.8805291 56.1934"></polygon>
                    <path d="M74.6227291,36.6289 C77.7237291,36.6289 80.6027291,34.9619 81.1507291,31.2349 C81.6997291,27.5099 79.3167291,25.7919 76.2177291,25.7919 L68.7257291,25.7919 L67.1327291,36.6289 L74.6227291,36.6289 Z M78.6267291,18.5359 C86.6357291,18.5359 92.5837291,23.0469 91.4017291,31.0879 C90.2037291,39.2279 83.1127291,43.8859 74.7437291,43.8859 L66.0637291,43.8859 L64.2537291,56.1929 L54.1797291,56.1929 L59.7197291,18.5359 L78.6267291,18.5359 Z" id="Fill-23"></path>
                    <polygon id="Fill-25" points="97.5807291 18.5361 107.704729 18.5361 103.254729 48.7891 115.805729 48.7891 114.715729 56.1931 92.0407291 56.1931"></polygon>
                    <polygon id="Fill-27" points="138.812229 5.4375 138.868229 1.1235 137.196229 1.1235 137.209229 0.0675 141.923229 0.0675 141.910229 1.1235 140.238229 1.1235 140.182229 5.4375"></polygon>
                    <polygon id="Fill-29" points="148.404929 0.0674 148.335929 5.4374 146.992929 5.4374 147.035929 2.0954 147.021929 2.0954 145.923929 5.4374 144.775929 5.4374 143.742929 2.0814 143.728929 2.0814 143.685929 5.4374 142.384929 5.4374 142.454929 0.0674 144.265929 0.0674 145.372929 3.7534 145.385929 3.7534 146.579929 0.0674"></polygon>
                </g>
            </g>
        </g>
    </g>
</svg>