<?xml version="1.0" encoding="UTF-8"?><svg id="Layer_2" xmlns="http://www.w3.org/2000/svg" viewBox="0 0 174.73 54"><defs><style>.cls-1{fill:#00a6fa;}.cls-2{fill:#ffa200;}.cls-3{fill:#fff;}</style></defs><g id="Layer_1-2"><path class="cls-2" d="m174.73,22.59c0,8.97-7.27,16.23-16.23,16.23s-16.23-7.27-16.23-16.23,7.27-16.23,16.23-16.23,16.23,7.27,16.23,16.23"/><path class="cls-3" d="m164.13,18.35l-.27.6h.3l-.02-.6Zm0,0l-.27.6h.3l-.02-.6Zm0,0l-.27.6h.3l-.02-.6Zm1.83.26s.04-.03.05-.05c.02-.02.03-.05.04-.08.01-.03.02-.07.02-.11,0-.03,0-.06-.01-.08,0-.02-.02-.04-.03-.05-.01-.01-.03-.02-.04-.02h-.28l-.09.41h.29s.03,0,.05-.02m-5.15,1.07h-.53l.14-.64-.34-1.28h.57l.13.83.49-.83h.58l-.9,1.29-.14.64Zm2.47-1.93l-.1.46h-.76l-.06.27h.65l-.09.43h-.65l-.06.3h.78l-.1.46h-1.31l.41-1.93h1.29Zm1.23,0l.21,1.93h-.54v-.38h-.48l-.17.38h-.54l1.03-1.93h.49Zm.77,0h.85c.11,0,.19.03.27.08.07.05.13.12.17.21.04.09.06.17.06.27,0,.06,0,.13-.03.19-.02.06-.04.12-.08.18-.03.06-.07.11-.12.16-.05.05-.1.09-.16.13l.23.71h-.6l-.19-.59h-.16l-.12.59h-.53l.41-1.93Zm1.65.42c.05-.09.11-.17.19-.24.08-.07.17-.11.27-.15.1-.03.2-.05.3-.05.09,0,.18.01.26.03.08.02.15.05.22.08.07.03.13.06.17.09l-.32.44s-.01-.01-.03-.03c-.03-.02-.06-.04-.1-.06-.04-.02-.09-.04-.15-.06-.05-.02-.11-.03-.16-.03-.03,0-.05,0-.07.01-.02,0-.04.02-.05.04-.01.02-.02.04-.02.06s.01.05.04.07c.03.02.06.03.1.05.04.01.09.03.15.05.09.03.16.07.23.11.07.04.12.09.15.14.04.06.05.13.05.22,0,.14-.03.25-.08.34s-.12.17-.2.22c-.08.06-.18.1-.27.12-.1.03-.2.04-.3.04-.13,0-.27-.02-.4-.06-.14-.04-.25-.1-.35-.16l.33-.46s.01.01.04.03c.03.02.07.05.12.07.05.03.11.05.18.07.07.02.13.03.2.03.04,0,.07,0,.09-.01.02,0,.03-.02.04-.04,0-.01,0-.03,0-.05,0-.03-.02-.06-.05-.08-.03-.02-.08-.04-.13-.06-.05-.02-.11-.04-.17-.06-.08-.03-.15-.07-.2-.11-.05-.04-.09-.08-.12-.14-.03-.05-.04-.11-.04-.18,0-.12.02-.23.07-.32m-10.51,4.07c-.14.32-.32.6-.54.85-.22.25-.47.44-.74.59-.27.15-.55.22-.82.22-.26,0-.5-.08-.71-.25-.21-.16-.38-.38-.49-.65-.11-.27-.17-.57-.17-.9,0-.34.07-.67.2-.97.13-.3.3-.57.51-.8.21-.23.45-.41.72-.54s.55-.2.85-.2c.28,0,.52.07.74.22.21.15.38.34.49.59.11.25.17.52.17.83,0,.34-.07.68-.21.99m12.74-1.4l.72-4.25h-10.89s-.04-.03-.07-.04c-.71-.41-1.55-.61-2.52-.61-.33,0-.64.03-.93.09-.3.06-.57.15-.84.27-.26.12-.52.28-.76.48.15-.59.36-1.09.64-1.5.28-.41.61-.72,1.01-.95.39-.22.83-.33,1.3-.33s.95.11,1.39.34c.43.23.8.56,1.12.98l3.22-3c-.59-.77-1.28-1.35-2.09-1.76-.8-.4-1.7-.6-2.7-.6-1.34,0-2.57.3-3.68.9-1.11.6-2.07,1.44-2.87,2.52-.8,1.08-1.42,2.34-1.85,3.77-.43,1.43-.65,2.98-.65,4.65,0,1.87.41,3.33,1.22,4.4.81,1.06,2,1.6,3.57,1.6l4.43-.07c.41,0,.81-.14,1.12-.41.1-.09.21-.16.32-.23.27-.16.55-.23.85-.23.36,0,.63.14.82.43.19.29.28.67.28,1.13,0,.39-.05.74-.15,1.07-.1.33-.24.61-.43.85-.19.24-.41.43-.66.56-.25.14-.55.2-.87.2-.49,0-.98-.14-1.46-.43-.48-.29-.89-.68-1.22-1.19l-3.17,2.95c.34.87.95,1.54,1.83,2.03.88.48,1.92.72,3.13.72,1.11,0,2.15-.19,3.11-.57s1.8-.91,2.52-1.58c.72-.67,1.28-1.47,1.68-2.38.4-.91.6-1.92.6-3,0-.95-.18-1.78-.54-2.49-.36-.71-.88-1.26-1.55-1.67-.67-.41-1.47-.61-2.38-.61-.34,0-.59.02-.74.06-.09.03-.15.04-.17.05h0s-.01,0,0,0l.59-2.15h7.72Zm-3.1-2.57s-.02-.04-.03-.05c-.01-.01-.03-.02-.04-.02h-.28l-.09.41h.29s.03,0,.05-.02c.02-.01.04-.03.05-.05.02-.02.03-.05.04-.08.01-.03.02-.07.02-.11,0-.03,0-.06-.01-.08m-1.93.07l-.27.6h.3l-.02-.6Zm1.93-.07s-.02-.04-.03-.05c-.01-.01-.03-.02-.04-.02h-.28l-.09.41h.29s.03,0,.05-.02c.02-.01.04-.03.05-.05.02-.02.03-.05.04-.08.01-.03.02-.07.02-.11,0-.03,0-.06-.01-.08m-1.93.07l-.27.6h.3l-.02-.6Z"/><polygon class="cls-2" points="96.22 43.9 94.98 43.9 93.33 51.67 98.47 51.67 98.7 50.59 94.8 50.59 96.22 43.9"/><path class="cls-2" d="m103.93,46.08c-.3-.12-.64-.18-1.03-.18-.5,0-.97.09-1.39.28-.43.18-.8.44-1.12.76-.32.33-.57.7-.74,1.11-.18.42-.26.86-.26,1.33s.09.86.27,1.22c.18.36.44.65.78.86.34.21.75.31,1.24.31.36,0,.72-.06,1.08-.19.35-.12.68-.3.97-.52.29-.22.53-.48.71-.76l-.95-.3c-.17.27-.4.48-.69.64-.29.16-.59.24-.91.24-.29,0-.53-.07-.73-.2-.19-.13-.34-.31-.43-.54-.09-.23-.14-.48-.14-.75,0-.07,0-.13,0-.2.14,0,.26.02.39.02.26.01.48.02.69.02,1.08,0,1.88-.15,2.41-.46.53-.3.79-.74.79-1.32,0-.35-.08-.63-.25-.86-.16-.23-.39-.4-.69-.52Zm-.38,1.91c-.13.15-.35.26-.65.34-.3.08-.71.12-1.23.12-.2,0-.41,0-.63-.02-.1,0-.2-.01-.31-.02.11-.31.25-.58.45-.83.19-.25.42-.44.69-.58s.57-.21.89-.21c.2,0,.38.03.53.08.15.05.26.13.34.23.08.1.12.23.12.4,0,.19-.07.35-.2.5Z"/><path class="cls-2" d="m109.89,46.08c-.3-.12-.64-.18-1.03-.18-.5,0-.97.09-1.39.28-.43.18-.8.44-1.12.76-.32.33-.57.7-.74,1.11-.17.42-.26.86-.26,1.33s.09.86.27,1.22c.18.36.44.65.78.86.34.21.75.31,1.24.31.36,0,.72-.06,1.08-.19.35-.12.68-.3.97-.52.29-.22.53-.48.71-.76l-.95-.3c-.17.27-.4.48-.69.64-.29.16-.59.24-.91.24-.29,0-.53-.07-.73-.2-.19-.13-.34-.31-.43-.54-.09-.23-.14-.48-.14-.75,0-.07,0-.13,0-.2.14,0,.26.02.39.02.26.01.48.02.69.02,1.08,0,1.88-.15,2.41-.46.53-.3.79-.74.79-1.32,0-.35-.08-.63-.25-.86-.16-.23-.39-.4-.69-.52Zm-.38,1.91c-.13.15-.35.26-.65.34-.3.08-.71.12-1.23.12-.2,0-.41,0-.63-.02-.1,0-.2-.01-.31-.02.11-.31.25-.58.45-.83.19-.25.42-.44.69-.58s.57-.21.89-.21c.2,0,.38.03.53.08.15.05.26.13.34.23.08.1.12.23.12.4,0,.19-.07.35-.2.5Z"/><path class="cls-2" d="m114.83,43.57c-.36,0-.69.09-1,.28-.31.19-.57.45-.79.79s-.38.75-.47,1.22l-.04.23h-.72l-.2.93h.71l-1.48,6.98h1.2l1.48-6.98h1.38l.21-.93h-1.38l.05-.26c.09-.4.22-.71.4-.92.18-.21.4-.32.67-.32.12,0,.25.02.39.06.13.04.25.1.33.17l.45-.9c-.18-.11-.37-.19-.57-.26-.21-.06-.42-.09-.63-.09Z"/><path class="cls-2" d="m122.65,46.22c-.28-.21-.62-.32-1.04-.32s-.8.11-1.17.32-.7.5-.97.85l.7-3.39h-1.2l-1.7,7.99h1.06l.22-1.03c.12.34.33.61.61.82.28.21.65.31,1.08.31s.82-.09,1.2-.28.73-.45,1.04-.78c.31-.33.55-.71.73-1.14.18-.43.27-.89.27-1.37,0-.41-.07-.79-.21-1.14-.14-.35-.35-.63-.63-.84Zm-.6,3.08c-.11.28-.27.52-.46.74-.19.22-.41.39-.66.52-.24.13-.5.19-.76.19-.23,0-.43-.05-.62-.15-.19-.1-.34-.23-.45-.4s-.18-.36-.2-.56l.33-1.5c.15-.22.31-.42.5-.61.19-.18.4-.33.62-.44.22-.11.44-.17.66-.17.26,0,.48.07.66.21.17.14.31.32.4.55s.14.47.14.74c0,.3-.06.59-.17.87Z"/><path class="cls-2" d="m128.66,46.08c-.3-.12-.64-.18-1.03-.18-.5,0-.97.09-1.39.28-.43.18-.8.44-1.12.76-.32.33-.57.7-.74,1.11-.17.42-.26.86-.26,1.33s.09.86.27,1.22c.18.36.44.65.78.86.34.21.75.31,1.24.31.36,0,.72-.06,1.08-.19.35-.12.68-.3.97-.52.29-.22.53-.48.71-.76l-.95-.3c-.17.27-.4.48-.69.64-.29.16-.59.24-.91.24-.29,0-.53-.07-.73-.2-.19-.13-.34-.31-.43-.54-.09-.23-.14-.48-.14-.75,0-.07,0-.13,0-.2.14,0,.26.02.39.02.26.01.48.02.69.02,1.08,0,1.88-.15,2.41-.46.53-.3.79-.74.79-1.32,0-.35-.08-.63-.25-.86-.16-.23-.39-.4-.69-.52Zm-.38,1.91c-.13.15-.35.26-.65.34-.3.08-.71.12-1.23.12-.2,0-.41,0-.63-.02-.1,0-.2-.01-.31-.02.11-.31.25-.58.45-.83.19-.25.42-.44.69-.58s.57-.21.89-.21c.2,0,.38.03.53.08.15.05.26.13.34.23.08.1.12.23.12.4,0,.19-.07.35-.2.5Z"/><path class="cls-2" d="m132.92,44.11h-1.2l-.4,1.88h-.71l-.21.93h.73l-.77,3.56c-.01.07-.03.13-.03.19,0,.06-.01.12-.01.17,0,.33.11.56.32.71s.47.22.79.22c.2,0,.4-.02.59-.05.19-.03.37-.08.53-.14.16-.06.3-.13.41-.19l-.04-.95c-.06.03-.13.06-.22.09-.09.03-.18.06-.29.09-.11.03-.21.04-.32.04-.13,0-.24-.03-.32-.1-.08-.07-.13-.17-.13-.32,0-.03,0-.06,0-.08,0-.03,0-.05.02-.08l.68-3.18h1.17l.2-.93h-1.18l.4-1.88Z"/><path class="cls-2" d="m138.39,46.08c-.3-.12-.64-.18-1.03-.18-.5,0-.97.09-1.39.28-.43.18-.8.44-1.12.76-.32.33-.57.7-.74,1.11-.17.42-.26.86-.26,1.33s.09.86.27,1.22c.18.36.44.65.78.86.34.21.75.31,1.24.31.36,0,.72-.06,1.08-.19.35-.12.68-.3.97-.52.29-.22.53-.48.71-.76l-.95-.3c-.17.27-.4.48-.69.64-.29.16-.59.24-.91.24-.29,0-.53-.07-.73-.2-.19-.13-.34-.31-.43-.54-.09-.23-.14-.48-.14-.75,0-.07,0-.13,0-.2.14,0,.26.02.39.02.26.01.48.02.69.02,1.08,0,1.88-.15,2.41-.46.53-.3.79-.74.79-1.32,0-.35-.08-.63-.25-.86-.16-.23-.39-.4-.69-.52Zm-.38,1.91c-.13.15-.35.26-.65.34-.3.08-.71.12-1.23.12-.2,0-.41,0-.63-.02-.1,0-.2-.01-.31-.02.11-.31.25-.58.45-.83.19-.25.42-.44.69-.58s.57-.21.89-.21c.2,0,.38.03.53.08.15.05.26.13.34.23.08.1.12.23.12.4,0,.19-.07.35-.2.5Z"/><path class="cls-2" d="m143.79,45.96s-.1,0-.17,0c-.34,0-.69.12-1.04.36s-.66.55-.94.94l.28-1.27h-1.12l-1.23,5.68h1.2l.74-3.47c.23-.37.53-.65.92-.85s.79-.31,1.23-.31l.23-1.05s-.07-.01-.11-.02Z"/><path class="cls-2" d="m64.19,5.38l.89-4.11c.16-.74.81-1.27,1.57-1.27h4.17l-.86,4.1c-.16.74-.81,1.28-1.57,1.28h-4.2Z"/><path class="cls-2" d="m72.4,5.38l.89-4.11c.16-.74.81-1.27,1.57-1.27h4.12l-.82,4.09c-.15.75-.81,1.29-1.57,1.29h-4.19Z"/><path class="cls-1" d="m60.69,8.07h19.47l-.86,3.92c-.25,1.17-1.3,2-2.51,2h-10.56l-1.21,5.68h10.84l-.74,3.46c-.25,1.17-1.3,2.01-2.51,2.01h-8.75l-1.38,6.21h13.01l-.82,3.91c-.25,1.18-1.3,2.02-2.52,2.02h-17.75l6.3-29.22Z"/><path class="cls-1" d="m84.7,8.07h19.09l-.82,3.91c-.25,1.18-1.3,2.02-2.52,2.02h-10.21l-1.33,6.3h10.09l-.74,3.46c-.25,1.17-1.3,2.01-2.51,2.01h-8.05l-2.03,9.51c-.25,1.17-1.3,2.01-2.51,2.01h-4.75l6.3-29.22Z"/><path class="cls-1" d="m107.71,8.07h19.47l-.86,3.92c-.25,1.17-1.3,2-2.51,2h-10.56l-1.21,5.68h10.84l-.74,3.46c-.25,1.17-1.3,2.01-2.51,2.01h-8.75l-1.38,6.21h13.01l-.82,3.91c-.25,1.18-1.3,2.02-2.52,2.02h-17.75l6.3-29.22Z"/><path class="cls-1" d="m131.72,8.07h6.84l-5.04,23.29h13.38l-.82,3.91c-.25,1.18-1.3,2.02-2.52,2.02h-18.13l6.3-29.22Z"/><path class="cls-1" d="m32.18,8.07h-8.88l-12.35,11.98,2.47-11.98h-7.09L0,37.29h4.87c1.35,0,2.51-.96,2.76-2.28l2.23-11.59,6.68,13.87h7.92l-7.43-14.53,15.15-14.69Z"/><path class="cls-1" d="m35.53,35.05l1.76-8.34h1.78l4.99,10.62h7.46l-5.63-11.35h0c1.57-.45,3.03-1.23,4.24-2.33l.02-.02c.34-.31.67-.64.97-.99,1.05-1.24,1.79-2.57,2.23-3.99.29-.93.43-1.87.43-2.83,0-1.32-.27-2.56-.8-3.74-.54-1.18-1.32-2.14-2.36-2.89-1.03-.75-2.28-1.12-3.75-1.12h-12.49l-6.32,29.22h4.71c1.33,0,2.48-.93,2.76-2.23Zm11.69-17.5c-.12.39-.29.76-.52,1.11-.23.36-.5.68-.81.96h0c-.5.46-1.09.79-1.74.97-1.12.31-3,.31-3,.31h-2.67s1.61-7.76,1.61-7.76h4.44c.61,0,1.13.16,1.56.47.43.31.76.71.98,1.2.22.49.34,1.01.34,1.56,0,.4-.06.79-.18,1.18Z"/></g></svg>