<svg xmlns="http://www.w3.org/2000/svg" viewBox="0 0 150.47 57.92"><defs><style>.p-1{fill:#f3f3f2;}.p-2{fill:#9cd7f1;}.p-3{fill:#8cbbdd;}.p-4{fill:#6692c6;}.p-5{fill:#587bb7;}.p-6{fill:#41539b;}.p-7{fill:#363f8e;}.p-8{fill:#2d2e83;}.p-9{fill:#95cbe8;}.p-10{fill:#86bae0;}.p-11{fill:#93c6e5;}.p-12{fill:#8cbbde;}.p-13{fill:#7daad5;}.p-14{fill:#76a1cf;}.p-15{fill:#7caed8;}.p-16{fill:#75a2d0;}.p-17{fill:#5f8ac1;}.p-18{fill:#5477b5;}.p-19{fill:#6c95c8;}.p-20{fill:#5e85be;}.p-21{fill:#577db9;}.p-22{fill:#4d6bac;}.p-23{fill:#4862a6;}.p-24{fill:#3168a6;}.p-25{fill:#3d4a95;}.p-26{fill:#3a4290;}.p-27{fill:#42569e;}.p-28{fill:#3a4793;}.p-29{fill:#333789;}.p-30{fill:#363c8c;}.p-31{fill:#313587;}.p-32{fill:#1d1d1b;}</style></defs><polygon class="p-1" points="0 22.23 11.77 57.92 49.36 57.76 60.82 21.96 30.31 0 0 22.23"/><polygon class="p-2" points="26.62 7.59 5.22 23.27 39.71 11.61 31.72 5.86 26.62 7.59"/><polygon class="p-2" points="26.58 7.61 31.73 5.87 30.33 4.86 26.58 7.61"/><polygon class="p-3" points="5.22 23.27 4.63 23.71 7.07 31.1 47.7 17.36 39.71 11.61 5.22 23.27"/><polygon class="p-4" points="7.07 31.1 9.58 38.71 55.69 23.12 47.7 17.36 7.07 31.1"/><polygon class="p-5" points="9.58 38.71 12.09 46.31 53.36 32.36 56.2 23.48 55.69 23.11 9.58 38.71"/><polygon class="p-6" points="12.09 46.31 14.59 53.92 50.32 41.84 53.36 32.36 12.09 46.31"/><polygon class="p-7" points="14.59 53.92 14.61 53.98 39.75 53.87 47.29 51.31 50.32 41.84 14.59 53.92"/><polygon class="p-8" points="39.75 53.87 46.48 53.84 47.29 51.31 39.75 53.87"/><polygon class="p-2" points="26.58 7.61 21.04 11.68 30.42 14.75 39.71 11.61 34.03 7.52 30.38 6.33 26.58 7.61"/><polygon class="p-2" points="26.58 7.61 30.38 6.33 28.97 5.86 26.58 7.61"/><polygon class="p-9" points="30.42 14.75 43.1 18.92 47.7 17.36 39.71 11.61 30.42 14.75"/><polygon class="p-10" points="43.1 18.92 55.53 23 50.25 19.2 47.7 17.36 43.1 18.92"/><polygon class="p-2" points="30.38 6.33 34.03 7.52 31.73 5.87 30.38 6.33"/><polygon class="p-2" points="30.33 4.86 28.97 5.86 30.38 6.33 31.73 5.87 30.33 4.86"/><polygon class="p-11" points="16.06 15.33 13.11 17.5 17.78 19.03 30.42 14.76 21.04 11.68 16.06 15.33"/><polygon class="p-12" points="17.78 19.03 30.46 23.19 43.1 18.92 30.42 14.75 17.78 19.03"/><polygon class="p-13" points="30.46 23.19 43.14 27.36 55.69 23.11 55.53 23 43.1 18.92 30.46 23.19"/><polygon class="p-14" points="43.14 27.36 53.83 30.87 56.2 23.48 55.69 23.12 43.14 27.36"/><polygon class="p-15" points="5.22 23.27 17.78 19.03 13.11 17.49 5.22 23.27"/><polygon class="p-16" points="5.22 23.27 5.17 23.32 17.81 27.47 30.46 23.19 17.78 19.03 5.22 23.27"/><polygon class="p-4" points="17.81 27.47 30.5 31.63 43.14 27.36 30.46 23.19 17.81 27.47"/><polygon class="p-17" points="30.5 31.63 43.17 35.8 53.36 32.36 53.83 30.87 43.14 27.36 30.5 31.63"/><polygon class="p-18" points="43.17 35.8 51.39 38.5 53.21 32.81 53.36 32.36 43.17 35.8"/><polygon class="p-19" points="4.63 23.71 7.07 31.1 17.81 27.47 5.17 23.32 4.63 23.71"/><polygon class="p-20" points="7.07 31.1 7.54 32.52 17.85 35.91 30.5 31.64 17.81 27.47 7.07 31.1"/><polygon class="p-21" points="17.85 35.91 30.53 40.07 43.17 35.8 30.5 31.63 17.85 35.91"/><polygon class="p-22" points="30.53 40.08 43.21 44.24 50.32 41.84 51.13 39.33 51.39 38.5 43.17 35.8 30.53 40.08"/><polygon class="p-23" points="43.21 44.24 48.95 46.13 50.32 41.84 43.21 44.24"/><polygon class="p-24" points="8 33.92 9.58 38.71 17.85 35.91 7.54 32.52 8 33.92"/><polygon class="p-23" points="9.58 38.71 10.66 41.98 17.89 44.35 30.53 40.08 17.85 35.91 9.58 38.71"/><polygon class="p-6" points="17.89 44.35 30.57 48.52 43.21 44.24 30.53 40.08 17.89 44.35"/><polygon class="p-25" points="30.57 48.52 43.25 52.68 47.29 51.31 48.95 46.13 43.21 44.24 30.57 48.52"/><polygon class="p-26" points="43.25 52.68 46.51 53.75 47.29 51.31 43.25 52.68"/><polygon class="p-27" points="12.09 46.31 17.89 44.35 10.66 41.98 12.09 46.31"/><polygon class="p-28" points="12.09 46.31 13.77 51.43 17.92 52.79 30.57 48.52 17.89 44.35 12.09 46.31"/><polygon class="p-7" points="17.92 52.79 21.44 53.95 39.75 53.87 43.25 52.68 30.57 48.52 17.92 52.79"/><polygon class="p-29" points="39.75 53.86 46.48 53.84 46.51 53.75 43.25 52.68 39.75 53.86"/><polygon class="p-30" points="14.59 53.92 17.92 52.79 13.77 51.43 14.59 53.92"/><polygon class="p-31" points="14.59 53.92 14.61 53.98 21.44 53.95 17.92 52.79 14.59 53.92"/><rect class="p-32" x="128.79" y="31.95" width="3.6" height="21.52" transform="translate(-0.19 0.57) rotate(-0.25)"/><polygon class="p-4" points="128.75 31.96 128.77 37.64 132.36 36.43 132.34 31.95 128.75 31.96"/><polygon class="p-5" points="128.77 37.64 128.8 44.88 132.39 43.66 132.36 36.43 128.77 37.64"/><polygon class="p-6" points="128.8 44.88 128.84 52.12 132.43 50.9 132.39 43.66 128.8 44.88"/><polygon class="p-7" points="128.84 52.12 128.84 53.48 132.44 53.46 132.43 50.9 128.84 52.12"/><polygon class="p-4" points="132.34 31.95 128.75 31.96 128.77 36.88 129.91 37.26 132.36 36.43 132.34 31.95"/><polygon class="p-17" points="132.36 36.43 129.91 37.26 132.37 38.06 132.36 36.43"/><polygon class="p-20" points="128.77 37.64 129.91 37.26 128.77 36.88 128.77 37.64"/><polygon class="p-21" points="129.91 37.26 128.77 37.64 128.8 44.12 129.94 44.49 132.39 43.66 132.37 38.06 129.91 37.26"/><polygon class="p-22" points="132.39 43.66 129.94 44.49 132.4 45.3 132.39 43.66"/><polygon class="p-23" points="128.8 44.88 129.94 44.49 128.8 44.12 128.8 44.88"/><polygon class="p-6" points="129.94 44.49 128.8 44.88 128.83 51.35 129.97 51.73 132.43 50.9 132.4 45.3 129.94 44.49"/><polygon class="p-25" points="132.43 50.9 129.97 51.73 132.43 52.54 132.43 50.9"/><polygon class="p-28" points="128.84 52.12 129.97 51.73 128.83 51.35 128.84 52.12"/><polygon class="p-7" points="129.97 51.73 128.84 52.12 128.84 53.48 132.44 53.46 132.43 52.54 129.97 51.73"/><rect class="p-32" x="134.88" y="31.93" width="3.6" height="21.52" transform="translate(-0.19 0.6) rotate(-0.25)"/><polygon class="p-4" points="134.83 31.93 134.85 35.59 138.44 34.37 138.43 31.92 134.83 31.93"/><polygon class="p-5" points="134.85 35.59 134.88 42.82 138.47 41.61 138.44 34.37 134.85 35.59"/><polygon class="p-6" points="134.88 42.82 134.91 50.06 138.5 48.85 138.47 41.61 134.88 42.82"/><polygon class="p-7" points="134.91 50.06 134.93 53.45 138.52 53.43 138.5 48.85 134.91 50.06"/><polygon class="p-13" points="135.69 31.93 138.43 32.83 138.43 31.92 135.69 31.93"/><polygon class="p-4" points="135.69 31.93 134.83 31.93 134.85 35.59 138.44 34.37 138.43 32.83 135.69 31.93"/><polygon class="p-17" points="138.44 34.37 134.85 35.59 134.86 38.88 138.47 40.07 138.44 34.37"/><polygon class="p-21" points="134.86 38.88 134.88 42.82 138.47 41.61 138.47 40.06 134.86 38.88"/><polygon class="p-22" points="138.47 41.61 134.88 42.82 134.9 46.12 138.5 47.3 138.47 41.61"/><polygon class="p-6" points="134.9 46.12 134.91 50.06 138.5 48.84 138.5 47.3 134.9 46.12"/><polygon class="p-25" points="138.5 48.84 134.91 50.06 134.93 53.36 135.21 53.45 138.52 53.43 138.5 48.84"/><polygon class="p-7" points="134.93 53.45 135.21 53.45 134.93 53.36 134.93 53.45"/><rect class="p-32" x="140.97" y="31.9" width="3.6" height="21.52" transform="translate(-0.19 0.62) rotate(-0.25)"/><polygon class="p-4" points="140.92 31.91 140.93 33.53 144.52 32.32 144.52 31.89 140.92 31.91"/><polygon class="p-5" points="140.93 33.53 140.96 40.77 144.55 39.55 144.52 32.32 140.93 33.53"/><polygon class="p-6" points="140.96 40.77 140.99 48.01 144.58 46.79 144.55 39.55 140.96 40.77"/><polygon class="p-7" points="140.99 48.01 141.01 53.42 144.61 53.41 144.58 46.79 140.99 48.01"/><polygon class="p-13" points="144.52 31.89 140.92 31.91 140.93 33.53 144.52 32.32 144.52 31.89"/><polygon class="p-14" points="144.52 32.32 140.93 33.53 140.93 33.65 144.53 34.83 144.52 32.32"/><polygon class="p-17" points="140.93 33.65 140.96 40.77 144.55 39.55 144.53 34.83 140.93 33.65"/><polygon class="p-18" points="144.55 39.55 140.96 40.77 140.96 40.89 144.56 42.07 144.55 39.55"/><polygon class="p-22" points="140.96 40.89 140.99 48.01 144.58 46.79 144.56 42.07 140.96 40.89"/><polygon class="p-23" points="144.58 46.79 140.99 48.01 140.99 48.12 144.59 49.3 144.58 46.79"/><polygon class="p-25" points="140.99 48.12 141.01 53.42 144.61 53.41 144.59 49.3 140.99 48.12"/><path class="p-32" d="M77.3,14.62l5.2,12-3.93,0-3.44-7.91-1.68,3.12,0,4.81H69.93L69.84,5.14h3.54l0,9.82,5-9.85h4Z"/><path class="p-32" d="M84,26.59l-.1-21.51,9.29,0,1.76,1.75,0,9.62-1.75,1.76L95,26.54l-3.53,0-1.8-8.37H87.53l0,8.38ZM91,14.7l.4-.42,0-5.33-.4-.39-3.45,0,0,6.14Z"/><path class="p-32" d="M97.28,26.53,97.19,5h3.59l.1,21.51Z"/><path class="p-32" d="M110.29,11.16V8.9l-.42-.42h-2.75l-.42.43,0,4.47.42.42,5,0,1.76,1.75,0,9.17-1.74,1.76-7.31,0-1.76-1.75,0-4.44,3.6,0v2.3l.42.42h2.75l.42-.43,0-4.87-.43-.42-5,0-1.76-1.74,0-8.81L104.83,5l7.3,0,1.76,1.74,0,4.45Z"/><path class="p-32" d="M126.73,8.38h-3.88l.08,18-3.6,0-.08-18-3.87,0,0-3.49,11.35-.05Z"/><path class="p-32" d="M134.35,21.73l-4.42,0L129,26.4h-3.68l5-21.53,3.51,0L139,26.35l-3.68,0Zm-.73-3.48L132.09,11l-1.47,7.26Z"/><path class="p-32" d="M150.47,26.3l-9.88.05L140.5,4.83h3.62l.08,18,6.26,0Z"/><path class="p-32" d="M70.05,53.49,70,32l9.14,0,1.76,1.75,0,9.62-1.74,1.77-5.55,0,0,8.38Zm6.8-11.89.42-.42,0-5.32-.43-.4-3.25,0,0,6.14Z"/><path class="p-32" d="M90.16,48.76l-4.42,0-.94,4.65H81.12l5-21.53,3.51,0,5.19,21.49-3.68,0Zm-.72-3.48L87.9,38,86.44,45.3Z"/><path class="p-32" d="M96.41,53.38l-.1-21.51,9.29,0,1.76,1.74,0,9.63L105.66,45l1.79,8.37h-3.54L102.12,45H100l0,8.38Zm7-11.89.4-.43,0-5.32-.4-.4-3.46,0,0,6.14Z"/><path class="p-32" d="M117.08,41.29l5.2,12-3.93,0-3.43-7.91-1.69,3.12,0,4.81-3.54,0-.09-21.51,3.54,0,0,9.82,5-9.84,4,0Z"/></svg>