<svg xmlns="http://www.w3.org/2000/svg" xmlns:xlink="http://www.w3.org/1999/xlink" version="1.1" id="Layer_1" x="0px" y="0px" viewBox="0 0 600 104" style="enable-background:new 0 0 600 104;" xml:space="preserve"><style type="text/css">
	.st0{fill:none;}
	.st1{fill:#F26522;}
</style><desc>Created with Sketch.</desc><g id="Logo"></g><g><g><g><g><g><g><rect x="-34" y="-15" class="st0" width="672.1" height="138.1"/></g></g></g></g><path class="st1" d="M9.7,52.4c0-21.6,17.5-39.1,39.1-39.1C70.4,13.3,88,30.8,88,52.4C88,74,70.4,91.5,48.8,91.5    C27.2,91.5,9.7,74,9.7,52.4z M52,57.4c-4.5,3.3-10.3,1-12.6-7.1c-1.8-6.5-10.7-15.5-17.6-10.5c-2.6,1.9-3.6,5-2.6,8    c3.2,9.8,14.3,0.4,17.1,9.2S24.8,64.8,28,74.6c1,3,3.6,4.9,6.8,4.9c10.3,0,4.8-13.5,14.1-13.5c9.3,0,3.7,13.5,14.1,13.5    c3.2,0,5.8-1.9,6.8-4.9c3.2-9.8-11.3-8.7-8.4-17.5c2.9-8.8,14,0.6,17.1-9.2c1-3,0-6.1-2.6-8c-8.3-6.1-11.8,8.1-19.3,2.6    s4.9-13.1-3.5-19.2c-2.6-1.9-5.8-1.9-8.4,0c-6.9,5-1.1,16.2,4.5,19.9C56.1,47.9,56.5,54.2,52,57.4z"/></g><g><g><path d="M180.6,76.8v-10c-3.1,0.4-5.4,0.5-7.5,0.5c-3.3,0-4.6-1.3-4.6-4.6V40.9h11.5V31h-11.5V16.7l-11.9,2.9v44.1     c0,9.3,5,14.5,14.2,14.5C174,78.1,177.3,77.7,180.6,76.8z"/></g><g><path d="M302.2,76.8v-10c-3.1,0.4-5.4,0.5-7.5,0.5c-3.3,0-4.6-1.3-4.6-4.6V40.9h11.5V31H290V16.7l-11.9,2.9v44.1     c0,9.3,5,14.5,14.2,14.5C295.6,78.1,298.9,77.7,302.2,76.8z"/></g><path d="M230.4,76.3v-9l-1.9,0.3c-1.3,0.2-1.8-0.6-1.8-2.3V48.5c0-2.9-0.2-6.1-1.3-9.1c-2.3-6.3-8-9.5-16.6-9.5    c-10,0-16.6,4.7-18.1,12.8l10.9,1.6c0.6-4.1,4.2-5,7.1-5c5.5,0,6.6,2.6,6.6,6.5v2l-12,0.9c-9.2,0.7-15,6.4-15,14.7    c0,7.1,5,14.7,16,14.7c5.9,0,10.4-2.8,12.7-5.8c0.8,2.9,3.3,5.4,7.5,5.4C227.4,77.7,228.7,77.1,230.4,76.3z M215.5,58.5    c0,6-4,9.7-10.3,9.7c-2.7,0-5.5-1.8-5.5-5c0-3.3,2.8-5.1,5.6-5.3l10.2-0.8V58.5z"/><path d="M135.4,49.4l-8.8-1.3c-2.5-0.4-4.2-1.4-4.2-3.9c0-3,2.2-4.8,6.6-4.8c4.5,0,6.3,2.6,6.6,5.2l10.4-2.2    c-1.5-6.8-7.4-12.3-16.9-12.3c-9,0-17.2,5.3-17.2,15.2c0,7.6,6.2,11.9,10.4,12.5l10.9,1.6c2.1,0.3,3.6,1.8,3.6,4.2    c0,4.2-4.2,5.1-7.8,5.1c-5,0-7.4-2.5-7.8-5.9L111,65c1.4,6.3,7,13.2,17.9,13.2c12.4,0,18.3-7.2,18.3-15.7    C147.1,56,142.7,50.5,135.4,49.4z"/></g><path class="st1" d="M348.4,33.8c-3.2-2.6-7-3.9-11.2-3.9c-5.2,0-9.8,2-12.4,5.4l-0.6-4.2h-10.2v60.5h11.7V74.3   c2.5,2.4,6.7,3.8,11.4,3.8c4.4,0,8.2-1.3,11.3-3.7c5.5-4.5,8.2-11.4,8.2-20.5C356.6,45.2,353.8,38.2,348.4,33.8z M342,64.7   c-1.8,2.2-4.1,3.4-7,3.4c-8.1,0-9.8-7.7-9.8-14.1c0-6.5,1.7-14.2,9.8-14.2c2.9,0,5.2,1.1,7,3.4c1.9,2.4,2.8,6,2.8,10.8   C344.8,58.8,343.8,62.3,342,64.7z"/><path class="st1" d="M503.6,33.8c-3.2-2.6-7-3.9-11.2-3.9c-5.2,0-9.8,2-12.4,5.4l-0.6-4.2h-10.2v60.5h11.7V74.3   c2.5,2.4,6.7,3.8,11.4,3.8c4.4,0,8.2-1.3,11.3-3.7c5.5-4.5,8.2-11.4,8.2-20.5C511.9,45.2,509,38.2,503.6,33.8z M497.2,64.7   c-1.8,2.2-4.1,3.4-7,3.4c-8.1,0-9.8-7.7-9.8-14.1c0-6.5,1.7-14.2,9.8-14.2c2.9,0,5.2,1.1,7,3.4c1.9,2.4,2.8,6,2.8,10.8   C500,58.8,499.1,62.3,497.2,64.7z"/><path class="st1" d="M437.5,67.8c2.5,0,4.9-1,6.5-2.7c2.1-2.3,3.1-5.8,3.1-11.1c0-5.2-1-8.7-3.1-11c-1.6-1.7-4.1-2.7-6.5-2.7   c-3.6,0-5.8,1.9-6.5,2.7c-2.1,2.3-3.1,5.8-3.1,11s1,8.8,3.1,11.1C431.7,65.9,433.9,67.8,437.5,67.8z M459,54c0,7.1-1.6,12.2-5.4,17   c-2.9,3.5-8.6,7.2-16.1,7.2c-7.6,0-13.3-3.7-16.1-7.2c-3.8-4.7-5.4-9.8-5.4-17c0-7.1,1.6-12.1,5.4-16.9c2.9-3.5,8.6-7.2,16.1-7.2   c7.6,0,13.3,3.7,16.1,7.2C457.4,41.8,459,46.9,459,54z"/><g><path d="M268.7,42V30.7c-1.4-0.2-2.4-0.3-3.8-0.3c-5.7,0-10.3,2.4-12.5,6.4c-0.3-1.8-0.8-5.8-0.8-5.8h-10v46h11.8V53.8    c0-7.6,4.3-12.3,11.2-12.3C265.6,41.5,267.4,41.7,268.7,42z"/></g><path class="st1" d="M540.7,67.1c0,0-1.8,0.1-2.2,0.1c-3.3,0-3.9-1.3-3.9-3.9V13.5h-11.8v51.6c0,8.2,4.4,12.6,12.8,12.6   c2.8,0,5.2-0.7,5.2-0.7L540.7,67.1L540.7,67.1z"/><path class="st1" d="M407.4,57.9c0,0,0.1-3.5,0.1-4.8c0-5.9-1.3-10.5-4-14.6c-3.6-5.5-9.6-8.5-16.9-8.5c-5.9,0-11,2-14.7,5.9   c-4.3,4.4-6.7,10.9-6.7,18.4c0,7.5,2.5,13.9,7.1,18.3c4,3.8,8.8,5.7,14.5,5.7c6.5,0,12-2.3,15.6-6.5c0.8-1,1.7-2.4,2.5-3.9l-10-4.3   c-0.4,1.2-1,2.2-1.9,3.1c-1.5,1.5-3.3,2-6.3,2c-2.4,0-4.5-0.9-6.4-2.7c-2-1.9-3.2-4.8-3.2-8L407.4,57.9L407.4,57.9z M379.3,42.7   c1.6-2.1,4.2-3.3,7.2-3.3c2.8,0,5,0.8,6.6,2.5c1.6,1.8,2.5,4.2,2.6,7.2h-18.6C377.2,46.5,377.9,44.5,379.3,42.7z"/><path class="st1" d="M589.3,57.9c0,0,0.1-3.5,0.1-4.8c0-5.9-1.3-10.5-4-14.6c-3.6-5.5-9.6-8.5-16.9-8.5c-5.9,0-11,2-14.7,5.9   c-4.3,4.4-6.7,10.9-6.7,18.4c0,7.5,2.5,13.9,7.1,18.3c4,3.8,8.8,5.7,14.5,5.7c6.5,0,12-2.3,15.6-6.5c0.8-1,1.7-2.4,2.5-3.9l-10-4.3   c-0.4,1.2-1,2.2-1.9,3.1c-1.5,1.5-3.3,2-6.3,2c-2.4,0-4.5-0.9-6.4-2.7c-2-1.9-3.2-4.8-3.2-8L589.3,57.9L589.3,57.9z M561.2,42.7   c1.6-2.1,4.2-3.3,7.2-3.3c2.8,0,5,0.8,6.6,2.5c1.6,1.8,2.5,4.2,2.6,7.2H559C559.2,46.5,559.8,44.5,561.2,42.7z"/></g></svg>