<svg xmlns="http://www.w3.org/2000/svg"><g fill="none"><path fill="#000" d="M20.289 8.927v32.95h-9.252V8.926H0V.65h31.488v8.278h-11.2zm37.494 4.22c0-3.084-1.136-4.382-5.032-4.382h-7.304v12.173h7.304c3.896 0 5.032-1.46 5.032-4.545v-3.246zm-6.817 15.907h-5.519v12.822h-9.252V.65H53.4c10.064 0 13.797 3.896 13.797 11.687v5.031c0 5.194-1.786 8.603-6.006 10.388l9.09 14.121H59.244l-8.278-12.822zM76.286.649h9.252v41.227h-9.252V.65zm114.105 12.823c0-3.246-2.11-5.194-6.655-5.194-4.707 0-6.655 1.948-6.655 5.194v15.582c0 3.246 2.11 5.194 6.655 5.194 4.707 0 6.655-1.948 6.655-5.194V13.472zm9.252 16.393c0 6.33-4.383 12.66-15.907 12.66-11.686 0-15.906-6.33-15.906-12.66V12.66c0-6.33 4.382-12.66 15.906-12.66 11.686 0 15.907 6.33 15.907 12.66v17.205zm-99.335 12.011h-9.414l10.55-16.718 4.707 7.304-5.843 9.414m1.136-24.509L90.894.65h9.414l5.843 9.252-4.707 7.466m24.996 24.51h-9.414L103.88 21.262 117.026.649h9.414l-13.147 20.614 13.147 20.613"/><path fill="#87BD25" d="M139.75 41.876h-9.414l10.55-16.718 4.707 7.304-5.843 9.414m1.136-24.509L130.336.65h9.414l5.843 9.252-4.707 7.466m24.996 24.51h-9.414L143.32 21.262 156.468.649h9.414l-13.147 20.614 13.147 20.613"/></g></svg>